<svg xmlns="http://www.w3.org/2000/svg" xmlns:xlink="http://www.w3.org/1999/xlink"><symbol id="dzen" viewBox="0 0 20 20"><g fill="none">
<path d="M19.5586 9.55711C19.5604 9.55711 19.5617 9.55711 19.5634 9.55711C19.6852 9.55711 19.8014 9.50602 19.8839 9.41652C19.9677 9.3257 20.0092 9.20389 19.9983 9.08076C19.5599 4.25925 15.7429 0.440639 10.9212 0.00140703C10.7989 -0.00819844 10.6758 0.0315333 10.585 0.1158C10.4942 0.199629 10.4436 0.317951 10.4449 0.441512C10.5208 6.84924 11.3661 9.4676 19.5586 9.55711ZM19.5586 10.4426C11.3661 10.5321 10.5213 13.1504 10.4453 19.5581C10.444 19.6817 10.4946 19.8 10.5855 19.8839C10.6667 19.9585 10.7728 20 10.8819 20C10.895 20 10.9085 19.9996 10.9216 19.9983C15.7433 19.559 19.5604 15.7408 19.9983 10.9189C20.0092 10.7958 19.9681 10.674 19.8839 10.5831C19.7996 10.4923 19.6822 10.4474 19.5586 10.4426ZM9.04954 0.00359014C4.24316 0.455484 0.438304 4.27322 0.0021535 9.08163C-0.00876118 9.20476 0.032278 9.32658 0.116539 9.41739C0.199054 9.5069 0.315623 9.55754 0.436994 9.55754C0.43874 9.55754 0.440487 9.55754 0.442233 9.55754C8.60772 9.46367 9.45077 6.84662 9.52761 0.443259C9.52892 0.319697 9.47784 0.200939 9.38703 0.117109C9.29534 0.0332798 9.17266 -0.00776178 9.04954 0.00359014ZM0.441797 10.4421C0.306018 10.4268 0.199491 10.4915 0.116103 10.5823C0.0322781 10.6731 -0.00919773 10.7949 0.00171694 10.918C0.437867 15.7264 4.24316 19.5442 9.04954 19.9961C9.06308 19.9974 9.07705 19.9978 9.09058 19.9978C9.19973 19.9978 9.30538 19.9568 9.38659 19.8821C9.4774 19.7983 9.52848 19.6795 9.52717 19.556C9.45033 13.153 8.60772 10.536 0.441797 10.4421Z" fill="#F9FBFD"/>
</g></symbol><symbol id="icon-close" viewBox="0 0 20 20"><g fill="none"><path d="M.293 18.291a1 1 0 101.414 1.414L10 11.413l8.292 8.292a1 1 0 101.414-1.414l-8.292-8.292 8.292-8.292A1 1 0 1018.291.293L9.999 8.585 1.707.293A1 1 0 10.293 1.707L8.585 10 .293 18.291z"/></g></symbol><symbol id="launch" viewBox="0 0 44 32"><g fill="none">
<path d="M41.4386 25.7195L1.64777 17.2126C1.34201 17.1472 1.13593 17.7761 1.29431 18.277C3.83755 26.326 9.85818 32 16.8667 32H40.6041C40.7654 32 40.9069 31.8011 40.9546 31.5089L41.7481 26.6154C41.8155 26.1995 41.6667 25.7682 41.4386 25.7195Z" fill="#011C40"/>
<path d="M43.8843 11.771C43.7677 11.426 43.5778 11.1964 43.3644 11.1421L32.3643 8.35935C31.9676 8.26054 31.5943 8.79339 31.5401 9.55451C31.4859 10.3156 31.7689 11.0169 32.17 11.1183L33.4153 11.4329C33.5971 11.4788 33.7335 11.7738 33.7335 12.1216V14.2727C33.7335 14.6859 33.5443 15.0087 33.328 14.9642L30.3947 14.3673C30.2084 14.3311 30.0669 14.0319 30.0669 13.6771V7.58714C30.0669 7.44936 30.0881 7.31582 30.1285 7.20168L31.4103 3.55359C31.557 3.13618 31.5739 2.60186 31.4551 2.15527C31.3356 1.70721 31.0987 1.41502 30.8347 1.39138L15.4347 6.54269e-05C15.1875 -0.00417389 14.9478 0.197683 14.8033 0.581667C14.8033 0.581667 11.8729 8.39554 11.2305 10.1152C11.1535 10.3212 11.0244 10.4311 10.8924 10.4032L0.811081 8.35527C0.602854 8.31353 0.397462 8.44022 0.242774 8.70306C0.0887737 8.96752 0 9.34319 0 9.73826C0 11.0782 0.0916956 12.3916 0.264774 13.6662C0.302931 13.9473 0.432009 14.1517 0.583775 14.1851L42.015 23.0425C42.1902 23.08 42.3545 22.8756 42.4066 22.5555L43.9679 12.93C44.0309 12.5391 44.0002 12.1147 43.8843 11.771ZM21.1626 4.06427L20.5906 11.6639C20.5628 12.0326 20.3904 12.2956 20.1946 12.258C18.7639 11.984 13.3885 10.9113 13.3885 10.9113C13.1098 10.8542 12.9661 10.2489 13.1289 9.8149L15.6479 3.12379C15.7205 2.93172 15.8393 2.82182 15.964 2.83307L20.8172 3.27135C21.0328 3.29075 21.1934 3.65794 21.1626 4.06427ZM29.1127 5.0786L28.6617 6.35871C28.6214 6.47285 28.6001 6.60769 28.6001 6.74547V13.2306C28.6001 13.6438 28.4109 13.9667 28.1946 13.9221L22.3748 12.7395C22.1687 12.6978 22.0213 12.3388 22.0506 11.9492L22.6438 4.06997C22.6702 3.71517 22.8352 3.45641 23.0245 3.47304L28.8252 3.99758C29.1098 4.02252 29.2711 4.62777 29.1127 5.0786ZM38.1334 15.1674C38.1334 15.5805 37.9442 15.9034 37.7279 15.8589C37.7279 15.8589 36.2055 15.5332 35.5235 15.3803C35.3387 15.34 35.2001 15.0421 35.2001 14.6901V12.6782C35.2001 12.2581 35.3952 11.9324 35.6152 11.988L37.8152 12.5445C37.9971 12.5918 38.1334 12.8868 38.1334 13.2347V15.1674ZM42.1837 14.4689L41.9116 16.144C41.8603 16.4613 41.6968 16.6658 41.5222 16.6311L39.9272 16.3069C39.7417 16.2694 39.6001 15.9702 39.6001 15.6154V13.7927C39.6001 13.3725 39.7952 13.0469 40.0152 13.1025L41.8815 13.5742C42.1059 13.6313 42.2504 14.0571 42.1837 14.4689Z" fill="#011C40"/>
</g></symbol><symbol id="logo" viewBox="0 0 70 38">
<path fill-rule="evenodd" clip-rule="evenodd" d="M0.903517 31.125L14.6726 12.5429L18.4395 14.556L27.4026 0L32.9879 6.65881L35.0665 4.95532L43.1199 15.1755L48.8355 8.36191L64.8126 31.125L49.42 11.7689L47.0817 19.8984L49.225 26.3249L35.456 7.35558L35.3069 13.8279L43.1199 31.125L28.5064 4.33574L32.7282 18.8145L26.8181 4.72292L23.5706 14.0916L24.2198 7.97472L16.1013 30.0411L17.0753 20.75L13.6981 17.0338L0.903517 31.125Z"/>
<path fill-rule="evenodd" clip-rule="evenodd" d="M69.4414 34.0314C47.641 16.428 13.7091 40.6289 0 31.2961C15.0723 44.5215 50.3019 22.1644 69.4414 34.0314Z"/>
<path fill-rule="evenodd" clip-rule="evenodd" d="M70 35.4157C52.8956 24.5171 27.4568 39.6838 14.4189 36.1717C28.5467 43.0283 54.8482 27.8361 70 35.4157Z"/>
</symbol><symbol id="ok" viewBox="0 0 12 20"><g fill="none">
<path d="M5.875 3.02543C7.07072 3.02543 8.04314 3.9842 8.04314 5.16312C8.04314 6.3385 7.07072 7.29726 5.875 7.29726C4.67928 7.29726 3.70687 6.3385 3.70687 5.16312C3.70687 3.9842 4.67928 3.02543 5.875 3.02543ZM5.875 10.3227C8.76345 10.3227 11.1117 8.00746 11.1117 5.16312C11.1117 2.31524 8.76345 0 5.875 0C2.98655 0 0.641942 2.31524 0.641942 5.16312C0.641942 8.00746 2.98655 10.3227 5.875 10.3227ZM7.99271 14.5342C9.05877 14.2927 10.0852 13.8772 11.0324 13.2913C11.7491 12.8474 11.9652 11.9135 11.515 11.2069C11.0612 10.4967 10.1176 10.2836 9.39732 10.7311C7.2544 12.0591 4.4956 12.0591 2.34908 10.7311C1.63237 10.2836 0.685162 10.4967 0.234968 11.2069C-0.215227 11.9135 0.000865602 12.8474 0.717575 13.2913C1.66478 13.8772 2.69123 14.2927 3.75729 14.5342L0.829223 17.4176C0.231365 18.007 0.231365 18.9658 0.829223 19.5552C1.13175 19.85 1.52072 19.9991 1.91329 19.9991C2.30586 19.9991 2.69843 19.85 3.00096 19.5552L5.875 16.7216L8.75264 19.5552C9.3505 20.1483 10.3193 20.1483 10.9208 19.5552C11.5186 18.9658 11.5186 18.007 10.9208 17.4176L7.99271 14.5342Z" fill="#F9FBFD"/>
</g></symbol><symbol id="reddit" viewBox="0 0 17 16"><g fill="none">
<path d="M10.3891 0C9.86274 0 9.36878 0.260274 9.05196 0.635616C8.73513 1.01096 8.5605 1.46849 8.43327 1.95069C8.2312 2.72603 8.16883 3.5863 8.15386 4.36164C6.6745 4.45753 5.33485 4.88493 4.22221 5.54521C3.77067 5.17534 3.22682 4.96986 2.70543 4.97534C2.11169 4.98082 1.54788 5.23014 1.12877 5.74247C0.327973 6.72055 0.420277 8.32055 1.34831 9.27123C1.29093 9.56438 1.24852 9.86575 1.24852 10.1699C1.24852 13.3918 4.62635 16 8.79251 16C12.9587 16 16.3365 13.389 16.3365 10.1699C16.3365 9.86575 16.2941 9.56438 16.2367 9.27123C17.1647 8.32055 17.257 6.72055 16.4562 5.74247C16.0371 5.23014 15.4733 4.98082 14.8796 4.97534C14.3582 4.96986 13.8144 5.17534 13.3628 5.54521C12.2552 4.88767 10.923 4.46027 9.45111 4.36164C9.47107 3.64658 9.52346 2.90411 9.67064 2.34521C9.76295 1.99452 9.87272 1.73973 9.98997 1.6C10.1072 1.46027 10.192 1.40274 10.3891 1.40274C10.8157 1.40274 10.8706 1.53699 11.1276 1.86301C11.2573 2.0274 11.407 2.23288 11.6465 2.43288C11.8859 2.63288 12.2402 2.80548 12.6244 2.80548V1.40274C12.5171 1.40274 12.4971 1.4 12.4248 1.33699C12.3525 1.27397 12.2527 1.12877 12.1055 0.942466C11.8111 0.567123 11.2398 0 10.3891 0ZM14.5403 0.131507C13.5474 0.131507 12.7441 1.0137 12.7441 2.10411C12.7441 3.19452 13.5474 4.07671 14.5403 4.07671C15.5332 4.07671 16.3365 3.19452 16.3365 2.10411C16.3365 1.0137 15.5332 0.131507 14.5403 0.131507ZM14.5403 0.832877C15.179 0.832877 15.6979 1.40274 15.6979 2.10411C15.6979 2.80548 15.179 3.37534 14.5403 3.37534C13.9017 3.37534 13.3828 2.80548 13.3828 2.10411C13.3828 1.40274 13.9017 0.832877 14.5403 0.832877ZM8.79251 5.45753C12.3275 5.45753 15.3187 7.61918 15.3187 10.1699C15.3187 12.7233 12.3275 14.8822 8.79251 14.8822C5.25751 14.8822 2.26636 12.7233 2.26636 10.1699C2.26636 7.61918 5.25751 5.45753 8.79251 5.45753ZM2.72538 6.09315C2.90251 6.09589 3.08712 6.13973 3.26424 6.22466C2.6231 6.7589 2.11418 7.3726 1.76742 8.06575C1.52793 7.52329 1.59279 6.84658 1.88716 6.48767C2.10171 6.22466 2.39858 6.09041 2.72538 6.09315ZM14.8596 6.09315C15.1864 6.09041 15.4833 6.22466 15.6979 6.48767C15.9922 6.84658 16.0571 7.52329 15.8176 8.06575C15.4708 7.3726 14.9619 6.7589 14.3208 6.22466C14.4979 6.13973 14.6825 6.09589 14.8596 6.09315ZM6.23793 7.84658C5.59929 7.84658 5.08039 8.41644 5.08039 9.11781C5.08039 9.81918 5.59929 10.389 6.23793 10.389C6.87657 10.389 7.39547 9.81918 7.39547 9.11781C7.39547 8.41644 6.87657 7.84658 6.23793 7.84658ZM11.3471 7.84658C10.7084 7.84658 10.1895 8.41644 10.1895 9.11781C10.1895 9.81918 10.7084 10.389 11.3471 10.389C11.9857 10.389 12.5046 9.81918 12.5046 9.11781C12.5046 8.41644 11.9857 7.84658 11.3471 7.84658ZM5.61924 12.1644C6.02588 13.0877 7.28321 13.9836 8.79251 13.9836C10.3018 13.9836 11.5791 13.0877 11.9857 12.1644C11.2473 12.6877 10.0823 13.0411 8.79251 13.0411C7.50275 13.0411 6.35768 12.6877 5.61924 12.1644Z" fill="#F9FBFD"/>
</g></symbol><symbol id="ship" viewBox="0 0 27 32"><g fill="none">
<path d="M4.40549 16.3962L13.2165 9.93576C13.4162 9.8063 13.6711 9.8063 13.8708 9.93576L22.7254 16.3962V8.68818C22.7739 7.6312 21.9743 6.7343 20.9396 6.68484C20.9242 6.68407 20.9089 6.68356 20.8934 6.68322H6.23749C5.20189 6.70667 4.38094 7.58319 4.4039 8.6411C4.40423 8.6568 4.40473 8.67249 4.40549 8.68818V16.3962Z" fill="#011C40"/>
<path d="M15.7464 0H11.3845V5.34662H15.7464V0Z" fill="#011C40"/>
<path d="M24.2956 30.1638L27 21.03L23.2052 18.3122L22.9434 18.1785L14.0016 11.8072V30.6094H13.5217L12.6929 30.5649V11.8072L0 21.03L2.79163 30.1193L4.4039 31.9904C4.4039 31.9904 5.7624 31.9904 7.15817 31.9904C7.15817 31.9904 12.2467 31.997 13.5218 31.9904C14.8198 32.012 17.1251 31.9904 17.1251 31.9904H22.8127L24.2956 30.1638Z" fill="#011C40"/>
</g></symbol><symbol id="ticks" viewBox="0 0 38 32"><g fill="none">
<path d="M28.7534 3.37533L26.4398 0L16.0732 15.1353L18.3868 18.5106L28.7534 3.37533ZM35.6945 0L18.3787 25.2494L11.5602 15.3023L9.24656 18.6776L18.3787 32L38 3.37533L35.6945 0ZM0 18.6776L9.1321 32L11.4458 28.6247L2.31368 15.3023L0 18.6776Z" fill="#011C40"/>
</g></symbol></svg>